<svg width="65" height="65" viewBox="0 0 65 65" fill="none" xmlns="http://www.w3.org/2000/svg">
<circle cx="32.5" cy="32.5" r="32.5" fill="#00366E" fill-opacity="0.08"/>
<path d="M20.6667 50.4224H38.3033C39.3613 50.4231 40.4069 50.1725 41.368 49.6881C42.3292 49.2036 43.1832 48.4968 43.8712 47.6162L53.2248 35.6599C53.4207 35.41 53.5575 35.1111 53.6231 34.7896C53.6887 34.4681 53.6811 34.1339 53.6011 33.8163C53.521 33.4988 53.3709 33.2077 53.164 32.9687C52.9571 32.7297 52.6997 32.5502 52.4145 32.4458L48.8065 31.1281C47.9345 30.8175 47.006 30.7472 46.1033 30.9235C45.2006 31.0997 44.3515 31.517 43.631 32.1385L37.7918 37.2549L36.6607 34.774C36.0547 33.4367 35.119 32.3121 33.9597 31.5275C32.8003 30.7429 31.4636 30.3296 30.101 30.3346H20.6667C18.6445 30.3346 17 32.1365 17 34.3522V46.4049C17 48.6206 18.6445 50.4224 20.6667 50.4224ZM20.6667 34.3522H30.101C31.4998 34.3522 32.7557 35.2019 33.3808 36.5719L34.2003 38.3697H26.1667V42.3873H37.1923C37.4744 42.3832 37.7518 42.3076 38.0027 42.1663L38.0082 42.1643L38.0155 42.1603H38.021L38.0247 42.1583H38.032L38.0338 42.1563C38.054 42.1623 38.0393 42.1543 38.0393 42.1543C38.0613 42.1543 38.043 42.1523 38.043 42.1523H38.0448L38.0485 42.1503L38.054 42.1483L38.0577 42.1462L38.0613 42.1442L38.0668 42.1422L38.0705 42.1402L38.0742 42.1382L38.0797 42.1342L38.0833 42.1322L38.087 42.1302L38.0925 42.1282L38.0962 42.1262H38.098L38.1017 42.1242H38.1035L38.1072 42.1221L38.1108 42.1201C38.131 42.1181 38.1163 42.1181 38.1163 42.1181L38.12 42.1161C38.1906 42.0694 38.2581 42.017 38.3217 41.9594L45.9227 35.2963C46.4012 34.8785 47.0648 34.7479 47.646 34.9608L48.6672 35.3345L41.09 45.0228C40.7415 45.4565 40.3128 45.8039 39.8323 46.0422C39.3519 46.2805 38.8307 46.4041 38.3033 46.4049H20.6667V34.3522ZM38.5618 12.9104C37.7167 13.9269 33.5 19.1999 33.5 23.3039C33.5 27.1808 36.3783 30.3346 39.9167 30.3346C43.455 30.3346 46.3333 27.1808 46.3333 23.3039C46.3333 19.1999 42.1167 13.9269 41.2715 12.9104C40.5767 12.0748 39.2567 12.0748 38.5618 12.9104ZM42.6667 23.3039C42.6667 24.9651 41.4328 26.317 39.9167 26.317C38.4005 26.317 37.1667 24.9651 37.1667 23.3039C37.1667 21.8817 38.5197 19.4189 39.9167 17.4101C41.3137 19.4189 42.6667 21.8817 42.6667 23.3039Z" fill="#00366E"/>
</svg>
