<svg width="65" height="65" viewBox="0 0 65 65" fill="none" xmlns="http://www.w3.org/2000/svg">
<circle cx="32.5" cy="32.5" r="32.5" fill="#00366E" fill-opacity="0.08"/>
<path d="M23.25 24.4063C22.3353 24.4063 21.4411 24.135 20.6805 23.6268C19.9199 23.1186 19.3271 22.3963 18.9771 21.5512C18.627 20.7061 18.5354 19.7761 18.7139 18.879C18.8923 17.9818 19.3328 17.1577 19.9796 16.5109C20.6264 15.8641 21.4505 15.4236 22.3477 15.2451C23.2449 15.0667 24.1748 15.1583 25.0199 15.5083C25.865 15.8584 26.5873 16.4512 27.0955 17.2117C27.6037 17.9723 27.875 18.8665 27.875 19.7813C27.875 21.0079 27.3877 22.1843 26.5204 23.0516C25.653 23.919 24.4766 24.4063 23.25 24.4063ZM23.25 17.4688C22.7926 17.4688 22.3455 17.6044 21.9652 17.8585C21.585 18.1126 21.2886 18.4737 21.1135 18.8963C20.9385 19.3189 20.8927 19.7838 20.9819 20.2324C21.0712 20.681 21.2914 21.093 21.6148 21.4164C21.9382 21.7398 22.3503 21.9601 22.7989 22.0493C23.2474 22.1385 23.7124 22.0928 24.135 21.9177C24.5575 21.7427 24.9187 21.4463 25.1728 21.066C25.4269 20.6857 25.5625 20.2386 25.5625 19.7813C25.5625 19.1679 25.3189 18.5797 24.8852 18.1461C24.4515 17.7124 23.8633 17.4688 23.25 17.4688ZM41.75 24.4063C40.8353 24.4063 39.9411 24.135 39.1805 23.6268C38.4199 23.1186 37.8271 22.3963 37.4771 21.5512C37.127 20.7061 37.0354 19.7761 37.2139 18.879C37.3923 17.9818 37.8328 17.1577 38.4796 16.5109C39.1264 15.8641 39.9505 15.4236 40.8477 15.2451C41.7449 15.0667 42.6748 15.1583 43.5199 15.5083C44.365 15.8584 45.0873 16.4512 45.5955 17.2117C46.1037 17.9723 46.375 18.8665 46.375 19.7813C46.375 21.0079 45.8877 22.1843 45.0204 23.0516C44.153 23.919 42.9766 24.4063 41.75 24.4063ZM41.75 17.4688C41.2926 17.4688 40.8455 17.6044 40.4652 17.8585C40.085 18.1126 39.7886 18.4737 39.6135 18.8963C39.4385 19.3189 39.3927 19.7838 39.4819 20.2324C39.5712 20.681 39.7914 21.093 40.1148 21.4164C40.4382 21.7398 40.8503 21.9601 41.2989 22.0493C41.7474 22.1385 42.2124 22.0928 42.635 21.9177C43.0575 21.7427 43.4187 21.4463 43.6728 21.066C43.9269 20.6857 44.0625 20.2386 44.0625 19.7813C44.0625 19.1679 43.8189 18.5797 43.3852 18.1461C42.9515 17.7124 42.3633 17.4688 41.75 17.4688ZM44.0625 48.6875H39.4375C38.8242 48.6875 38.236 48.4439 37.8023 48.0102C37.3686 47.5765 37.125 46.9883 37.125 46.375V38.2813H39.4375V46.375H44.0625V35.9688H46.375V29.0313C46.375 28.7246 46.2532 28.4305 46.0363 28.2137C45.8195 27.9968 45.5254 27.875 45.2188 27.875H37.7956L32.5 37.125L27.2044 27.875H19.7812C19.4746 27.875 19.1805 27.9968 18.9637 28.2137C18.7468 28.4305 18.625 28.7246 18.625 29.0313V35.9688H20.9375V46.375H25.5625V38.2813H27.875V46.375C27.875 46.9883 27.6314 47.5765 27.1977 48.0102C26.764 48.4439 26.1758 48.6875 25.5625 48.6875H20.9375C20.3242 48.6875 19.736 48.4439 19.3023 48.0102C18.8686 47.5765 18.625 46.9883 18.625 46.375V38.2813C18.0117 38.2813 17.4235 38.0376 16.9898 37.6039C16.5561 37.1703 16.3125 36.5821 16.3125 35.9688V29.0313C16.3125 28.1113 16.678 27.229 17.3285 26.5785C17.979 25.928 18.8613 25.5625 19.7812 25.5625H28.5456L32.5 32.5L36.4544 25.5625H45.2188C46.1387 25.5625 47.021 25.928 47.6715 26.5785C48.322 27.229 48.6875 28.1113 48.6875 29.0313V35.9688C48.6875 36.5821 48.4439 37.1703 48.0102 37.6039C47.5765 38.0376 46.9883 38.2813 46.375 38.2813V46.375C46.375 46.9883 46.1314 47.5765 45.6977 48.0102C45.264 48.4439 44.6758 48.6875 44.0625 48.6875Z" fill="#00366E"/>
</svg>
