<svg width="65" height="65" viewBox="0 0 65 65" fill="none" xmlns="http://www.w3.org/2000/svg">
<circle cx="32.5" cy="32.5" r="32.5" fill="#00366E" fill-opacity="0.08"/>
<path d="M19.25 38.875V37.5H16.5V38.875C16.5 41.4277 17.5141 43.8759 19.3191 45.6809C21.1241 47.4859 23.5723 48.5 26.125 48.5H30.25V45.75H26.125C24.3016 45.75 22.553 45.0257 21.2636 43.7364C19.9743 42.447 19.25 40.6984 19.25 38.875ZM44 25.125V26.5H46.75V25.125C46.75 22.5723 45.7359 20.1241 43.9309 18.3191C42.1259 16.5141 39.6777 15.5 37.125 15.5H33V18.25H37.125C38.0278 18.25 38.9218 18.4278 39.7559 18.7733C40.5901 19.1188 41.348 19.6252 41.9864 20.2636C42.6248 20.902 43.1312 21.6599 43.4767 22.4941C43.8222 23.3282 44 24.2222 44 25.125ZM26.125 25.125H17.875C16.781 25.125 15.7318 25.5596 14.9582 26.3332C14.1846 27.1068 13.75 28.156 13.75 29.25V32H16.5V29.25C16.5 28.8853 16.6449 28.5356 16.9027 28.2777C17.1606 28.0199 17.5103 27.875 17.875 27.875H26.125C26.4897 27.875 26.8394 28.0199 27.0973 28.2777C27.3551 28.5356 27.5 28.8853 27.5 29.25V32H30.25V29.25C30.25 28.156 29.8154 27.1068 29.0418 26.3332C28.2682 25.5596 27.219 25.125 26.125 25.125ZM22 23.75C23.0878 23.75 24.1512 23.4274 25.0556 22.8231C25.9601 22.2187 26.6651 21.3598 27.0813 20.3548C27.4976 19.3498 27.6065 18.2439 27.3943 17.177C27.1821 16.1101 26.6583 15.1301 25.8891 14.3609C25.1199 13.5917 24.1399 13.0679 23.073 12.8557C22.0061 12.6435 20.9002 12.7524 19.8952 13.1687C18.8902 13.5849 18.0313 14.2899 17.4269 15.1944C16.8226 16.0988 16.5 17.1622 16.5 18.25C16.5 19.7087 17.0795 21.1076 18.1109 22.1391C19.1424 23.1705 20.5413 23.75 22 23.75ZM22 15.5C22.5439 15.5 23.0756 15.6613 23.5278 15.9635C23.9801 16.2656 24.3325 16.6951 24.5407 17.1976C24.7488 17.7001 24.8033 18.2531 24.6972 18.7865C24.5911 19.3199 24.3291 19.81 23.9445 20.1945C23.5599 20.5791 23.0699 20.8411 22.5365 20.9472C22.0031 21.0533 21.4501 20.9988 20.9476 20.7907C20.4451 20.5825 20.0156 20.2301 19.7135 19.7778C19.4113 19.3256 19.25 18.7939 19.25 18.25C19.25 17.5207 19.5397 16.8212 20.0555 16.3055C20.5712 15.7897 21.2707 15.5 22 15.5ZM48.125 44.375H39.875C38.781 44.375 37.7318 44.8096 36.9582 45.5832C36.1846 46.3568 35.75 47.406 35.75 48.5V51.25H38.5V48.5C38.5 48.1353 38.6449 47.7856 38.9027 47.5277C39.1606 47.2699 39.5103 47.125 39.875 47.125H48.125C48.4897 47.125 48.8394 47.2699 49.0973 47.5277C49.3551 47.7856 49.5 48.1353 49.5 48.5V51.25H52.25V48.5C52.25 47.406 51.8154 46.3568 51.0418 45.5832C50.2682 44.8096 49.219 44.375 48.125 44.375ZM38.5 37.5C38.5 38.5878 38.8226 39.6512 39.4269 40.5556C40.0313 41.4601 40.8902 42.1651 41.8952 42.5813C42.9002 42.9976 44.0061 43.1065 45.073 42.8943C46.1399 42.6821 47.1199 42.1583 47.8891 41.3891C48.6583 40.6199 49.1821 39.6399 49.3943 38.573C49.6065 37.5061 49.4976 36.4002 49.0813 35.3952C48.6651 34.3903 47.9601 33.5313 47.0556 32.9269C46.1512 32.3226 45.0878 32 44 32C42.5413 32 41.1424 32.5795 40.1109 33.6109C39.0795 34.6424 38.5 36.0413 38.5 37.5ZM46.75 37.5C46.75 38.0439 46.5887 38.5756 46.2865 39.0278C45.9844 39.4801 45.5549 39.8325 45.0524 40.0407C44.5499 40.2488 43.997 40.3033 43.4635 40.1972C42.9301 40.0911 42.4401 39.8291 42.0555 39.4445C41.6709 39.06 41.4089 38.5699 41.3028 38.0365C41.1967 37.5031 41.2512 36.9501 41.4593 36.4476C41.6675 35.9451 42.0199 35.5156 42.4722 35.2135C42.9244 34.9113 43.4561 34.75 44 34.75C44.7293 34.75 45.4288 35.0397 45.9445 35.5555C46.4603 36.0712 46.75 36.7707 46.75 37.5Z" fill="#00366E"/>
</svg>
